<mxfile host="65bd71144e">
    <diagram id="kO39UkVwHsCfTe-65dC2" name="Page-1">
        <mxGraphModel dx="746" dy="563" grid="1" gridSize="10" guides="1" tooltips="1" connect="1" arrows="1" fold="1" page="1" pageScale="1" pageWidth="850" pageHeight="1100" math="0" shadow="0">
            <root>
                <mxCell id="0"/>
                <mxCell id="1" parent="0"/>
                <mxCell id="2" value="0.0" style="swimlane;fontStyle=0;childLayout=stackLayout;horizontal=1;startSize=20;fillColor=#ffffff;horizontalStack=0;resizeParent=1;resizeParentMax=0;resizeLast=0;collapsible=0;marginBottom=0;swimlaneFillColor=#ffffff;fontColor=#000000;" vertex="1" parent="1">
                    <mxGeometry x="340" y="170" width="110" height="50" as="geometry"/>
                </mxCell>
                <mxCell id="5" value="Point of Sale System" style="text;html=1;strokeColor=none;fillColor=none;align=center;verticalAlign=middle;whiteSpace=wrap;rounded=0;fontColor=#000000;" vertex="1" parent="2">
                    <mxGeometry y="20" width="110" height="30" as="geometry"/>
                </mxCell>
                <mxCell id="6" value="" style="html=1;dashed=0;whitespace=wrap;fontColor=#000000;" vertex="1" parent="1">
                    <mxGeometry x="130" y="80" width="100" height="50" as="geometry"/>
                </mxCell>
            </root>
        </mxGraphModel>
    </diagram>
</mxfile>